<?xml version="1.0" encoding="UTF-8" standalone="no"?>
<svg
   xmlns:dc="http://purl.org/dc/elements/1.1/"
   xmlns:cc="http://creativecommons.org/ns#"
   xmlns:rdf="http://www.w3.org/1999/02/22-rdf-syntax-ns#"
   xmlns:svg="http://www.w3.org/2000/svg"
   xmlns="http://www.w3.org/2000/svg"
   viewBox="0 0 1037.3333 530.66669"
   height="530.66669"
   width="1037.3333"
   xml:space="preserve"
   id="svg2"
   version="1.1"><metadata
     id="metadata8"><rdf:RDF><cc:Work
         rdf:about=""><dc:format>image/svg+xml</dc:format><dc:type
           rdf:resource="http://purl.org/dc/dcmitype/StillImage" /><dc:title></dc:title></cc:Work></rdf:RDF></metadata><defs
     id="defs6"><clipPath
       id="clipPath20"
       clipPathUnits="userSpaceOnUse"><path
         id="path18"
         d="M 36,36 H 741.5 V 362 H 36 Z" /></clipPath></defs><g
     transform="matrix(1.3333333,0,0,1.3333333,0,1.66e-5)"
     id="g10"><g
       id="g12" /><g
       id="g14"><g
         clip-path="url(#clipPath20)"
         id="g16"><path
           id="path22"
           style="fill:#ffffff;fill-opacity:1;fill-rule:nonzero;stroke:none"
           d="M 36,36 H 741.5 V 362 H 36 Z" /><path
           id="path24"
           style="fill:none;stroke:#000000;stroke-width:1;stroke-linecap:butt;stroke-linejoin:miter;stroke-miterlimit:10;stroke-dasharray:none;stroke-opacity:1"
           d="m 384.5,40 h 69 v 36 h -69 z" /><text
           id="text28"
           style="font-variant:normal;font-weight:normal;font-size:14.00024414px;font-family:'Times New Roman';-inkscape-font-specification:TimesNewRomanPSMT;writing-mode:lr-tb;fill:#000000;fill-opacity:1;fill-rule:nonzero;stroke:none"
           transform="translate(392.5,61.699219)"><tspan
             id="tspan26"
             y="0"
             x="0 7.5041308 14.994262 18.732327 29.23251 32.970573 36.708641 41.216717 48.706848">objAllInt</tspan></text>
<path
           id="path30"
           style="fill:none;stroke:#000000;stroke-width:1;stroke-linecap:butt;stroke-linejoin:miter;stroke-miterlimit:10;stroke-dasharray:none;stroke-opacity:1"
           d="m 324,127 h 62 v 36 h -62 z" /><text
           id="text34"
           style="font-variant:normal;font-weight:normal;font-size:14.00024414px;font-family:'Times New Roman';-inkscape-font-specification:TimesNewRomanPSMT;writing-mode:lr-tb;fill:#000000;fill-opacity:1;fill-rule:nonzero;stroke:none"
           transform="translate(332,148.69922)"><tspan
             id="tspan32"
             y="0"
             x="0 7.5041308 14.994262 18.732327 31.486549 37.478653">objMed</tspan></text>
<path
           id="path36"
           style="fill:none;stroke:#000000;stroke-width:1;stroke-linecap:butt;stroke-linejoin:miter;stroke-miterlimit:10;stroke-dasharray:none;stroke-opacity:1"
           d="m 405.738,76.027 c -9.093,12.364 -21.308,28.969 -31.476,42.789" /><path
           id="path38"
           style="fill:#000000;fill-opacity:1;fill-rule:nonzero;stroke:#000000;stroke-width:1;stroke-linecap:butt;stroke-linejoin:miter;stroke-miterlimit:10;stroke-dasharray:none;stroke-opacity:1"
           d="m 376.988,121.016 -8.746,5.98 3.11,-10.129 z" /><text
           id="text42"
           style="font-variant:normal;font-weight:normal;font-size:14.00024414px;font-family:'Times New Roman';-inkscape-font-specification:TimesNewRomanPSMT;writing-mode:lr-tb;fill:#000000;fill-opacity:1;fill-rule:nonzero;stroke:none"
           transform="translate(391,105.19922)"><tspan
             id="tspan40"
             y="0"
             x="0 7.5041308 14.994262 18.732327 29.23251 32.970573 36.708641 41.216717 48.706848">objAllInt</tspan></text>
<text
           id="text46"
           style="font-variant:normal;font-weight:normal;font-size:14.00024414px;font-family:'Times New Roman';-inkscape-font-specification:TimesNewRomanPSMT;writing-mode:lr-tb;fill:#000000;fill-opacity:1;fill-rule:nonzero;stroke:none"
           transform="translate(443.44491,105.19922)"><tspan
             id="tspan44"
             y="0"
             x="0">≤</tspan></text>
<text
           id="text50"
           style="font-variant:normal;font-weight:normal;font-size:14.00024414px;font-family:'Times New Roman';-inkscape-font-specification:TimesNewRomanPSMT;writing-mode:lr-tb;fill:#000000;fill-opacity:1;fill-rule:nonzero;stroke:none"
           transform="translate(450.93504,105.19922)"><tspan
             id="tspan48"
             y="0"
             x="0">0</tspan></text>
<path
           id="path52"
           style="fill:none;stroke:#000000;stroke-width:1;stroke-linecap:butt;stroke-linejoin:miter;stroke-miterlimit:10;stroke-dasharray:none;stroke-opacity:1"
           d="m 492,127 h 54 v 36 h -54 z" /><text
           id="text56"
           style="font-variant:normal;font-weight:normal;font-size:14.00024414px;font-family:'Times New Roman';-inkscape-font-specification:TimesNewRomanPSMT;writing-mode:lr-tb;fill:#000000;fill-opacity:1;fill-rule:nonzero;stroke:none"
           transform="translate(501,148.69922)"><tspan
             id="tspan54"
             y="0"
             x="0 7.5041308 14.994262 18.732327 27.972488">objAv</tspan></text>
<path
           id="path58"
           style="fill:none;stroke:#000000;stroke-width:1;stroke-linecap:butt;stroke-linejoin:miter;stroke-miterlimit:10;stroke-dasharray:none;stroke-opacity:1"
           d="m 441.574,76.086 c 6.938,5.66 14.555,11.98 21.426,17.914 9.641,8.324 20.008,17.652 29.164,26.031" /><path
           id="path60"
           style="fill:#000000;fill-opacity:1;fill-rule:nonzero;stroke:#000000;stroke-width:1;stroke-linecap:butt;stroke-linejoin:miter;stroke-miterlimit:10;stroke-dasharray:none;stroke-opacity:1"
           d="m 494.539,117.461 4.992,9.344 -9.73,-4.192 z" /><text
           id="text64"
           style="font-variant:normal;font-weight:normal;font-size:14.00024414px;font-family:'Times New Roman';-inkscape-font-specification:TimesNewRomanPSMT;writing-mode:lr-tb;fill:#000000;fill-opacity:1;fill-rule:nonzero;stroke:none"
           transform="translate(479,105.19922)"><tspan
             id="tspan62"
             y="0"
             x="0 7.5041308 14.994262 18.732327 29.23251 32.970573 36.708641 41.216717 48.706848 52.444916 60.691059">objAllInt&gt;0</tspan></text>
<path
           id="path66"
           style="fill:none;stroke:#000000;stroke-width:1;stroke-linecap:butt;stroke-linejoin:miter;stroke-miterlimit:10;stroke-dasharray:none;stroke-opacity:1"
           d="M 40,214 H 282 V 358 H 40 Z" /><text
           id="text84"
           style="font-variant:normal;font-weight:normal;font-size:14.00024414px;font-family:'Times New Roman';-inkscape-font-specification:TimesNewRomanPSMT;writing-mode:lr-tb;fill:#000000;fill-opacity:1;fill-rule:nonzero;stroke:none"
           transform="translate(48,229.19922)"><tspan
             id="tspan68"
             y="0"
             x="0 7.5041308 14.994262 20.986366 24.72443 32.228561 36.722641 44.226772 50.218876 55.468967 59.207031 65.185135 71.177238 78.681374 83.175453 90.679581 95.929672 99.66774 104.16181 111.66595 115.41801 122.90814 127.41622 134.90636 140.89845 145.40654 149.14459 156.63474 161.14281 168.63293 176.13707 183.6412 191.14532 195.6394 203.14354 210.63367 216.62578 220.36385">dualp-pesteep-psi-1.0-pertv-2395-duals</tspan><tspan
             id="tspan70"
             y="30.999998"
             x="76 83.504135 90.994263 98.498398 106.00253 113.50665 118.00073 126.98889 134.49303 141.98315">23844-T1_0</tspan><tspan
             id="tspan72"
             y="46"
             x="93.000008 98.992111 106.48225 112.47435 119.97848 125.22857">a1c1s1</tspan><tspan
             id="tspan74"
             y="61"
             x="88 98.500183 102.99426 110.4984 114.99248 120.98458 128.48871 132.22678">A-4-cuts</tspan><tspan
             id="tspan76"
             y="76"
             x="86.5 92.492111 96.230171 99.968239 105.94634 113.45047 117.18854 123.18064 127.67472 131.41278">atlanta-ip</tspan><tspan
             id="tspan78"
             y="91.000008"
             x="92 99.504128 106.99426 112.98637 120.49049 125.74059">b2c1s1</tspan><tspan
             id="tspan80"
             y="106.00001"
             x="98.500008 106.00414 111.98224 119.48637">bab1</tspan><tspan
             id="tspan82"
             y="121.00001"
             x="77.5 81.252068 85.004135 88.756195 92.494263 103.73646 111.24059 115.73467 121.72678 125.47884 132.98297 140.4731">... more 156</tspan></text>
<path
           id="path86"
           style="fill:none;stroke:#000000;stroke-width:1;stroke-linecap:butt;stroke-linejoin:miter;stroke-miterlimit:10;stroke-dasharray:none;stroke-opacity:1"
           d="M 323.73,155.586 C 307.594,161.773 287.992,170.445 272,181 c -11.691,7.719 -23.285,16.719 -34.32,26.148" /><path
           id="path88"
           style="fill:#000000;fill-opacity:1;fill-rule:nonzero;stroke:#000000;stroke-width:1;stroke-linecap:butt;stroke-linejoin:miter;stroke-miterlimit:10;stroke-dasharray:none;stroke-opacity:1"
           d="m 239.973,209.793 -9.836,3.941 5.23,-9.214 z" /><text
           id="text92"
           style="font-variant:normal;font-weight:normal;font-size:14.00024414px;font-family:'Times New Roman';-inkscape-font-specification:TimesNewRomanPSMT;writing-mode:lr-tb;fill:#000000;fill-opacity:1;fill-rule:nonzero;stroke:none"
           transform="translate(272,192.19922)"><tspan
             id="tspan90"
             y="0"
             x="0 7.5041308 14.994262 18.732327 31.486549 37.478653">objMed</tspan></text>
<text
           id="text96"
           style="font-variant:normal;font-weight:normal;font-size:14.00024414px;font-family:'Times New Roman';-inkscape-font-specification:TimesNewRomanPSMT;writing-mode:lr-tb;fill:#000000;fill-opacity:1;fill-rule:nonzero;stroke:none"
           transform="translate(316.96878,192.19922)"><tspan
             id="tspan94"
             y="0"
             x="0">≤</tspan></text>
<text
           id="text100"
           style="font-variant:normal;font-weight:normal;font-size:14.00024414px;font-family:'Times New Roman';-inkscape-font-specification:TimesNewRomanPSMT;writing-mode:lr-tb;fill:#000000;fill-opacity:1;fill-rule:nonzero;stroke:none"
           transform="translate(324.45891,192.19922)"><tspan
             id="tspan98"
             y="0"
             x="0 7.5041308 11.256196 18.760326">0.75</tspan></text>
<path
           id="path102"
           style="fill:none;stroke:#000000;stroke-width:1;stroke-linecap:butt;stroke-linejoin:miter;stroke-miterlimit:10;stroke-dasharray:none;stroke-opacity:1"
           d="m 300.5,214 h 109 v 144 h -109 z" /><text
           id="text120"
           style="font-variant:normal;font-weight:normal;font-size:14.00024414px;font-family:'Times New Roman';-inkscape-font-specification:TimesNewRomanPSMT;writing-mode:lr-tb;fill:#000000;fill-opacity:1;fill-rule:nonzero;stroke:none"
           transform="translate(308.5,229.19922)"><tspan
             id="tspan104"
             y="0"
             x="0 3.7380652 11.242196 14.980261 22.470392 26.208456 30.716536 38.220665 45.710796 50.218876 57.709007 62.217083 65.955147 77.197342 83.175453 86.913513">idiot-80-primals</tspan><tspan
             id="tspan106"
             y="30.999998"
             x="24.999998 32.504128 39.994259 47.49839 52.00647 59.496597">50v-10</tspan><tspan
             id="tspan108"
             y="46"
             x="28.999994 36.504124 42.482227 46.220295 49.958359 57.46249">bell3a</tspan><tspan
             id="tspan110"
             y="61"
             x="31.999994 39.504124 45.482227 49.220295 52.958359">bell5</tspan><tspan
             id="tspan112"
             y="76"
             x="26.999989 34.50412 38.242184 44.220287 47.958355 51.696419 57.688522">biella1</tspan><tspan
             id="tspan114"
             y="91.000008"
             x="25.999989 31.992094 39.482224 43.990303 51.494434 58.984562">co-100</tspan><tspan
             id="tspan116"
             y="106.00001"
             x="5.4999919 11.492096 18.982227 23.490305 29.48241 36.972542 44.476669 51.980801 59.470932 63.979012 71.469139 78.973274">core2536-691</tspan><tspan
             id="tspan118"
             y="121.00001"
             x="14.499992 18.252058 22.004124 25.756189 29.494253 40.73645 48.240582 52.734657 58.726765 62.478828 69.982956">... more 85</tspan></text>
<path
           id="path122"
           style="fill:none;stroke:#000000;stroke-width:1;stroke-linecap:butt;stroke-linejoin:miter;stroke-miterlimit:10;stroke-dasharray:none;stroke-opacity:1"
           d="m 355,163.145 c 0,10.8 0,25.355 0,40.664" /><path
           id="path124"
           style="fill:#000000;fill-opacity:1;fill-rule:nonzero;stroke:#000000;stroke-width:1;stroke-linecap:butt;stroke-linejoin:miter;stroke-miterlimit:10;stroke-dasharray:none;stroke-opacity:1"
           d="m 358.5,203.949 -3.5,10 -3.5,-10 z" /><text
           id="text128"
           style="font-variant:normal;font-weight:normal;font-size:14.00024414px;font-family:'Times New Roman';-inkscape-font-specification:TimesNewRomanPSMT;writing-mode:lr-tb;fill:#000000;fill-opacity:1;fill-rule:nonzero;stroke:none"
           transform="translate(355,192.19922)"><tspan
             id="tspan126"
             y="0"
             x="0 7.5041308 14.994262 18.732327 31.486549 37.478653 44.968784 53.214928 60.705059 64.457123 71.961258">objMed&gt;0.75</tspan></text>
<path
           id="path130"
           style="fill:none;stroke:#000000;stroke-width:1;stroke-linecap:butt;stroke-linejoin:miter;stroke-miterlimit:10;stroke-dasharray:none;stroke-opacity:1"
           d="M 428,214 H 610 V 358 H 428 Z" /><text
           id="text148"
           style="font-variant:normal;font-weight:normal;font-size:14.00024414px;font-family:'Times New Roman';-inkscape-font-specification:TimesNewRomanPSMT;writing-mode:lr-tb;fill:#000000;fill-opacity:1;fill-rule:nonzero;stroke:none"
           transform="translate(436,229.19922)"><tspan
             id="tspan132"
             y="0"
             x="0 3.7380652 11.242196 14.980261 22.470392 26.208456 30.716536 38.220665 45.710796 50.218876 57.709007 63.701111 68.20919 71.94725 79.437386 83.945465 88.439545 95.943672 103.4478 110.93793 118.44206 122.93614 130.44028 134.93436 138.67242 149.91461 155.90672 159.64478">idiot-30-pertv--1483-primals</tspan><tspan
             id="tspan134"
             y="30.999998"
             x="60.000004 67.504135 74.99427 82.498398 90.002525 97.50666">1024_0</tspan><tspan
             id="tspan136"
             y="46"
             x="26.500011 33.738136 41.494274 48.998405 56.502533 64.006668 71.496796 79.000923 86.505058 93.995186 101.49932 109.00345 116.49358 123.99771 131.50185">116_205_1262_66</tspan><tspan
             id="tspan138"
             y="61"
             x="26.500011 34.004143 41.494274 48.998405 56.502533 64.006668 71.496796 79.000923 86.505058 93.995186 101.49932 109.00345 116.49358 123.99771 131.50185">121_147_1345_33</tspan><tspan
             id="tspan140"
             y="76"
             x="15.000015 22.504147 29.994276 37.498409 45.002537 52.506668 59.996799 67.500931 75.005058 82.495193 89.999321 97.503456 104.99358 112.49771 120.00185 127.50597 134.99611 142.50024">121_147_1345_33_pp</tspan><tspan
             id="tspan142"
             y="91.000008"
             x="64.000015 71.504143 78.994278 86.498405 94.002541">256_0</tspan><tspan
             id="tspan144"
             y="106.00001"
             x="56.500015 64.004143 71.494278 78.998405 86.502541 94.006668 101.4968">30n20b8</tspan><tspan
             id="tspan146"
             y="121.00001"
             x="47.500015 51.252079 55.004143 58.75621 62.494274 73.736473 81.240601 85.73468 91.726784 95.478851 102.98298 110.47311">... more 225</tspan></text>
<path
           id="path150"
           style="fill:none;stroke:#000000;stroke-width:1;stroke-linecap:butt;stroke-linejoin:miter;stroke-miterlimit:10;stroke-dasharray:none;stroke-opacity:1"
           d="m 519,163.145 c 0,10.8 0,25.355 0,40.664" /><path
           id="path152"
           style="fill:#000000;fill-opacity:1;fill-rule:nonzero;stroke:#000000;stroke-width:1;stroke-linecap:butt;stroke-linejoin:miter;stroke-miterlimit:10;stroke-dasharray:none;stroke-opacity:1"
           d="m 522.5,203.949 -3.5,10 -3.5,-10 z" /><text
           id="text156"
           style="font-variant:normal;font-weight:normal;font-size:14.00024414px;font-family:'Times New Roman';-inkscape-font-specification:TimesNewRomanPSMT;writing-mode:lr-tb;fill:#000000;fill-opacity:1;fill-rule:nonzero;stroke:none"
           transform="translate(519,192.19922)"><tspan
             id="tspan154"
             y="0"
             x="0 7.5041308 14.994262 18.732327 27.972488">objAv</tspan></text>
<text
           id="text160"
           style="font-variant:normal;font-weight:normal;font-size:14.00024414px;font-family:'Times New Roman';-inkscape-font-specification:TimesNewRomanPSMT;writing-mode:lr-tb;fill:#000000;fill-opacity:1;fill-rule:nonzero;stroke:none"
           transform="translate(554.23861,192.19922)"><tspan
             id="tspan158"
             y="0"
             x="0">≤</tspan></text>
<text
           id="text164"
           style="font-variant:normal;font-weight:normal;font-size:14.00024414px;font-family:'Times New Roman';-inkscape-font-specification:TimesNewRomanPSMT;writing-mode:lr-tb;fill:#000000;fill-opacity:1;fill-rule:nonzero;stroke:none"
           transform="translate(561.72874,192.19922)"><tspan
             id="tspan162"
             y="0"
             x="0 7.4901304 11.242196 18.746326 26.250458">0.009</tspan></text>
<path
           id="path166"
           style="fill:none;stroke:#000000;stroke-width:1;stroke-linecap:butt;stroke-linejoin:miter;stroke-miterlimit:10;stroke-dasharray:none;stroke-opacity:1"
           d="m 628.5,214 h 109 v 144 h -109 z" /><text
           id="text184"
           style="font-variant:normal;font-weight:normal;font-size:14.00024414px;font-family:'Times New Roman';-inkscape-font-specification:TimesNewRomanPSMT;writing-mode:lr-tb;fill:#000000;fill-opacity:1;fill-rule:nonzero;stroke:none"
           transform="translate(636.5,229.19922)"><tspan
             id="tspan168"
             y="0"
             x="0 3.7380652 11.242196 14.980261 22.470392 26.208456 30.716536 38.220665 45.710796 50.218876 57.709007 62.217083 65.955147 77.197342 83.175453 86.913513">idiot-60-primals</tspan><tspan
             id="tspan170"
             y="30.999998"
             x="22.500002 30.004133 37.494263 41.23233 47.224434 53.216537 64.458733">10teams</tspan><tspan
             id="tspan172"
             y="46"
             x="24.500008 30.492111 37.982243 45.486374 52.990505 60.494633">a05100</tspan><tspan
             id="tspan174"
             y="61"
             x="24.500008 30.492111 37.982243 45.486374 52.990505 60.494633">a10100</tspan><tspan
             id="tspan176"
             y="76"
             x="24.500008 30.492111 37.982243 45.486374 52.990505 60.494633">a10200</tspan><tspan
             id="tspan178"
             y="91.000008"
             x="35.000008 45.500191 49.99427">A-1</tspan><tspan
             id="tspan180"
             y="106.00001"
             x="24.500008 30.492111 37.982243 45.486374 52.990505 60.494633">a20200</tspan><tspan
             id="tspan182"
             y="121.00001"
             x="11.000006 14.752071 18.504137 22.256203 25.994267 37.236462 44.740593 49.234673 55.226776 58.978844 66.482971 73.973106">... more 341</tspan></text>
<path
           id="path186"
           style="fill:none;stroke:#000000;stroke-width:1;stroke-linecap:butt;stroke-linejoin:miter;stroke-miterlimit:10;stroke-dasharray:none;stroke-opacity:1"
           d="m 546.309,153.391 c 16.609,5.972 37.644,15.152 53.691,27.609 9.465,7.348 18.484,15.992 26.852,25.117" /><path
           id="path188"
           style="fill:#000000;fill-opacity:1;fill-rule:nonzero;stroke:#000000;stroke-width:1;stroke-linecap:butt;stroke-linejoin:miter;stroke-miterlimit:10;stroke-dasharray:none;stroke-opacity:1"
           d="m 629.715,204.07 4.012,9.809 -9.25,-5.164 z" /><text
           id="text192"
           style="font-variant:normal;font-weight:normal;font-size:14.00024414px;font-family:'Times New Roman';-inkscape-font-specification:TimesNewRomanPSMT;writing-mode:lr-tb;fill:#000000;fill-opacity:1;fill-rule:nonzero;stroke:none"
           transform="translate(616,192.19922)"><tspan
             id="tspan190"
             y="0"
             x="0 7.5041308 14.994262 18.732327 27.972488 35.238613 43.470757 50.974888 54.726955 62.217083 69.721214">objAv&gt;0.009</tspan></text>
</g></g></g></svg>